<svg width="75" height="76" xmlns="http://www.w3.org/2000/svg">
 <defs>
  <style>.cls-1{fill:#ffffff;}.cls-2{fill:#ffffff;}.cls-3{fill:none;stroke:#ffffff;stroke-miterlimit:10;}</style>
 </defs>
 <title>Logotype_SkyMaker</title>
 <g>
  <title>background</title>
  <rect fill="none" id="canvas_background" height="78" width="77" y="-1" x="-1"/>
 </g>
 <g>
  <title>Layer 1</title>
  <path id="svg_9" d="m4.700776,37.774072l0,20.36s16.66,-1.19 21.82,-1.16c2.47,0 11,0.24 12.41,0.19c1.63,-0.05 4.61,-0.37 6.17,-0.49s2.83,-0.12 4.85,-0.28c2.69,-0.22 4.21,0 5.71,-0.65c1,-0.41 2,-1.17 3.54,-1.85c2.22,-1 3.54,-1.28 4.4,-1.68s1.7,-1.31 3.22,-2.31s3.72,-2 3.52,-2.57c-0.83,-2.37 -3.72,-2.29 -6.15,-1.8c-1.3,0.26 -3.57,2.27 -3.57,2.27a42.15,42.15 0 0 0 -6.81,1.77c-2.88,0.24 -5.59,-0.26 -6.79,-0.09a44.83,44.83 0 0 0 -7.82,-2.88a11.27,11.27 0 0 1 -2.62,-2.34a9,9 0 0 0 -2.44,-2.14l0.19,-3.31l2.51,-3.6a10.55,10.55 0 0 0 2.9,-2.54c1.23,-2 2.36,-5.55 0.71,-7s-2.32,-0.84 -2.32,-0.84a18.87,18.87 0 0 1 -2.49,3.86c-1.45,1.65 -5.88,3.27 -9.63,7.13a20.87,20.87 0 0 0 -4,6.31l-17.31,-4.36z" class="cls-2"/>
  <path id="svg_10" d="m48.440776,19.064072" class="cls-3"/>
  <path id="svg_11" d="m62.810776,29.614072" class="cls-3"/>
  <polygon id="svg_12" points="56.28076767921448,38.52407932281494 54.510767221450806,43.68407917022705 53.27076554298401,44.25407886505127 47.40076661109924,42.244080543518066 46.580766916275024,41.07408046722412 48.330766916275024,35.93407917022705 49.65076661109924,35.28407955169678 55.570764780044556,37.30408000946045 56.28076767921448,38.52407932281494 " class="cls-2"/>
  <path id="svg_13" d="m63.270776,28.664072l0,0a9.56,9.56 0 1 0 -14.17,-4.84s0,0 0,0l0.11,0.35c0.71,1.76 1.91,3.28 1.32,5l-1,3l0.82,1.17l5.73,2l1.46,-0.39l1,-3.06c0.59,-1.74 2.64,-2 4.45,-3.09l0.28,-0.14z" class="cls-3"/>
 </g>
</svg>
